<svg xmlns="http://www.w3.org/2000/svg" xmlns:xlink="http://www.w3.org/1999/xlink" width="1029" height="239.213" viewBox="0 0 1029 239.213">
  <defs>
    <filter id="Path_624" x="0" y="3.204" width="225.754" height="236.009" filterUnits="userSpaceOnUse">
      <feOffset dy="3" input="SourceAlpha"/>
      <feGaussianBlur stdDeviation="3" result="blur"/>
      <feFlood flood-opacity="0.161"/>
      <feComposite operator="in" in2="blur"/>
      <feComposite in="SourceGraphic"/>
    </filter>
    <filter id="Bite" x="720" y="0" width="309" height="228" filterUnits="userSpaceOnUse">
      <feOffset dy="3" input="SourceAlpha"/>
      <feGaussianBlur stdDeviation="3" result="blur-2"/>
      <feFlood flood-opacity="0.161"/>
      <feComposite operator="in" in2="blur-2"/>
      <feComposite in="SourceGraphic"/>
    </filter>
  </defs>
  <g id="mega-bite-logo-311" transform="translate(-205.488 -739.313)">
    <g id="Group_217" data-name="Group 217" transform="translate(214.488 748.517)">
      <g transform="matrix(1, 0, 0, 1, -9, -9.2)" filter="url(#Path_624)">
        <g id="Path_624-2" data-name="Path 624" transform="translate(9 9.2)" fill="#fae83c">
          <path d="M 109.0047378540039 216.0094604492188 C 101.743293762207 216.0094604492188 94.48699951171875 215.2780151367188 87.43743896484375 213.8354644775391 C 80.56803131103516 212.4297790527344 73.81108856201172 210.3323059082031 67.35429382324219 207.601318359375 C 61.01423645019531 204.9196929931641 54.89912033081055 201.6005096435547 49.17876434326172 197.7359008789062 C 43.51226425170898 193.9076995849609 38.18364715576172 189.5111694335938 33.34097290039062 184.6684875488281 C 28.49829483032227 179.8258056640625 24.10176658630371 174.4971923828125 20.2735595703125 168.8306884765625 C 16.4089412689209 163.1103363037109 13.08976554870605 156.9952239990234 10.40814781188965 150.6551666259766 C 7.67714786529541 144.1983642578125 5.579677581787109 137.4414215087891 4.174001216888428 130.572021484375 C 2.731442213058472 123.5224609375 2.000000953674316 116.2661666870117 2.000000953674316 109.0047225952148 C 2.000000953674316 101.743278503418 2.731442213058472 94.48698425292969 4.174001216888428 87.43743133544922 C 5.579677581787109 80.56801605224609 7.67714786529541 73.81107330322266 10.40814781188965 67.35427856445312 C 13.08976554870605 61.01422119140625 16.4089412689209 54.89910507202148 20.2735595703125 49.17875289916992 C 24.10176658630371 43.51225280761719 28.49829483032227 38.18363571166992 33.34097290039062 33.34095764160156 C 38.18364715576172 28.49828147888184 43.51226425170898 24.10178184509277 49.17876434326172 20.27354621887207 C 54.89912033081055 16.40895843505859 61.01423645019531 13.08975219726562 67.35426330566406 10.40816402435303 C 73.81108856201172 7.677163600921631 80.56803131103516 5.57969331741333 87.43743896484375 4.17398738861084 C 94.48699951171875 2.731457948684692 101.743293762207 2.000016689300537 109.0047378540039 2.000016689300537 C 129.1205291748047 2.000016689300537 148.9569396972656 7.961075305938721 166.3695068359375 19.23872184753418 C 174.6845245361328 24.62416458129883 182.2726135253906 31.10831069946289 188.9229431152344 38.51107406616211 C 195.0884857177734 45.37416076660156 200.3435974121094 52.91082763671875 204.5637359619141 60.93841934204102 L 96.17823791503906 107.1650466918945 L 91.81714630126953 109.0250778198242 L 96.19279479980469 110.8505477905273 L 205.0387725830078 156.2593841552734 C 200.9454803466797 164.5763244628906 195.7739410400391 172.3375244140625 189.6467590332031 179.3549652099609 C 183.0906524658203 186.8636932373047 175.5305938720703 193.4185485839844 167.1766510009766 198.8373718261719 C 149.8576507568359 210.0714569091797 129.7421417236328 216.0094604492188 109.0047378540039 216.0094604492188 Z" stroke="none"/>
          <path d="M 109.0047302246094 4 C 101.8776626586914 4 94.75629425048828 4.717788696289062 87.83838653564453 6.133377075195312 C 81.09832000732422 7.512603759765625 74.46859741210938 9.570571899414062 68.13339233398438 12.25015258789062 C 61.91226196289062 14.8814697265625 55.91172790527344 18.13850402832031 50.29838562011719 21.9307861328125 C 44.73731994628906 25.68775939941406 39.50785827636719 30.00250244140625 34.75517272949219 34.75518798828125 C 30.00251770019531 39.50784301757812 25.68775939941406 44.73735046386719 21.9307861328125 50.29838562011719 C 18.13850402832031 55.91172790527344 14.88145446777344 61.91229248046875 12.25016784667969 68.13337707519531 C 9.570571899414062 74.46859741210938 7.512603759765625 81.09831237792969 6.133392333984375 87.83837890625 C 4.717788696289062 94.75628662109375 4.000015258789062 101.8776626586914 4.000015258789062 109.0047225952148 C 4.000015258789062 116.1317825317383 4.717788696289062 123.2531585693359 6.133392333984375 130.1710662841797 C 7.512603759765625 136.9111328125 9.570571899414062 143.5408477783203 12.25016784667969 149.8760681152344 C 14.88145446777344 156.09716796875 18.13850402832031 162.0977172851562 21.9307861328125 167.7110595703125 C 25.68775939941406 173.2720947265625 30.00251770019531 178.5016021728516 34.75517272949219 183.2542572021484 C 39.50785827636719 188.0069427490234 44.73731994628906 192.3216857910156 50.29838562011719 196.0786590576172 C 55.91172790527344 199.8709411621094 61.91226196289062 203.1279754638672 68.13339233398438 205.75927734375 C 74.46859741210938 208.4388732910156 81.09832000732422 210.4968414306641 87.83838653564453 211.8760681152344 C 94.75629425048828 213.2916564941406 101.8776626586914 214.0094451904297 109.0047302246094 214.0094451904297 C 129.3549499511719 214.0094451904297 149.0941009521484 208.1828155517578 166.0882568359375 197.1594390869141 C 174.2866668701172 191.8415069580078 181.7060394287109 185.4086303710938 188.1402282714844 178.0395355224609 C 193.6834411621094 171.6908721923828 198.4298400878906 164.7214965820312 202.284423828125 157.27734375 L 86.67141723632812 109.0454406738281 L 201.7638397216797 59.95826721191406 C 197.8060455322266 52.78970336914062 192.9986267089844 46.04058837890625 187.4351348876953 39.84765625 C 180.9026031494141 32.57606506347656 173.4492950439453 26.20700073242188 165.2822265625 20.91740417480469 C 148.1942596435547 9.849945068359375 128.7338256835938 4 109.0047302246094 4 M 109.0047302246094 0 C 151.6876678466797 0 189.4208526611328 26.18156433105469 207.3233489990234 61.93576049804688 L 96.96285247802734 109.0047225952148 L 207.7536926269531 155.2249145507812 C 190.4095764160156 192.2864990234375 152.7110748291016 218.0094451904297 109.0047302246094 218.0094451904297 C 48.80307006835938 218.0094451904297 1.52587890625e-05 169.2063446044922 1.52587890625e-05 109.0047225952148 C 1.52587890625e-05 48.8031005859375 48.80307006835938 0 109.0047302246094 0 Z" stroke="none" fill="#707070"/>
        </g>
      </g>
    </g>
    <g id="Group_218" data-name="Group 218" transform="translate(455.78 747.313)">
      <g id="Group_213" data-name="Group 213" transform="translate(0 13.213)" opacity="0.42">
        <text id="Mega-" transform="translate(0 167)" fill="#b0b0b0" font-size="155" font-family="SegoeUI-Bold, Segoe UI" font-weight="700"><tspan x="0" y="0">Mega-</tspan></text>
        <text id="Bite-2" data-name="Bite" transform="translate(471.102 167)" fill="#b0b0b0" font-size="155" font-family="SegoeUI-Bold, Segoe UI" font-weight="700"><tspan x="0" y="0">Bite</tspan></text>
      </g>
      <g id="Group_214" data-name="Group 214" transform="translate(6.606 0)">
        <text id="Mega--2" data-name="Mega-" transform="translate(0 167)" fill="#5f5d5d" font-size="155" font-family="SegoeUI-Bold, Segoe UI" font-weight="700"><tspan x="0" y="0">Mega-</tspan></text>
        <g transform="matrix(1, 0, 0, 1, -256.9, -8)" filter="url(#Bite)">
          <text id="Bite-3" data-name="Bite" transform="translate(731 175)" fill="#fae83c" stroke="rgba(112,112,112,0.56)" stroke-width="2" font-size="155" font-family="SegoeUI-Bold, Segoe UI" font-weight="700"><tspan x="0" y="0">Bite</tspan></text>
        </g>
      </g>
    </g>
  </g>
</svg>
